<?xml version="1.0" encoding="utf-8"?>
<!-- Generator: Adobe Illustrator 26.0.3, SVG Export Plug-In . SVG Version: 6.00 Build 0)  -->
<svg version="1.1" id="Calque_1" xmlns="http://www.w3.org/2000/svg" xmlns:xlink="http://www.w3.org/1999/xlink" x="0px" y="0px"
	 viewBox="0 0 600 360" style="enable-background:new 0 0 600 360;" xml:space="preserve">
<style type="text/css">
	.st0{fill:#FF1B16;}
	.st1{fill:#FFA001;}
	.st2{fill:#FE5E00;}
	.st3{fill:#FFFFFF;}
	.st4{fill:#08293E;}
	.st5{fill:#FEA200;stroke:#FEA200;stroke-width:2;stroke-miterlimit:10;}
	.st6{fill:none;stroke:#FEA200;stroke-width:2;stroke-miterlimit:10;}
	.st7{fill:#01C8B5;stroke:#01C8B5;stroke-width:2;stroke-miterlimit:10;}
	.st8{fill:none;stroke:#01C8B5;stroke-width:2;stroke-miterlimit:10;}
	.st9{fill:none;stroke:#02BEFE;stroke-width:2;stroke-miterlimit:10;}
	.st10{fill:#02BEFE;stroke:#02BEFE;stroke-width:2;stroke-miterlimit:10;}
	.st11{fill:none;stroke:#FE5E00;stroke-width:4;stroke-miterlimit:10;}
	.st12{fill:none;stroke:#2AA847;stroke-width:4;stroke-miterlimit:10;}
	.st13{fill:#F0E84A;stroke:#B96800;stroke-width:4;stroke-miterlimit:10;}
	.st14{fill:none;stroke:#67C1BD;stroke-width:4;stroke-miterlimit:10;}
</style>
<g>
	<polyline class="st11" points="254.2,165.7 254.2,213 270.3,213 301.2,213 301.2,165.7 	"/>
	<polyline class="st11" points="269.4,213 269.4,181.6 286,181.6 286,213 	"/>
	<polyline class="st11" points="232.3,165.7 277.4,120.5 322.1,165.2 	"/>
	<path class="st12" d="M208.6,210.4V150c0,0-2-36.1,32.8-23.4"/>
	<circle class="st13" cx="354.9" cy="116.8" r="36.5"/>
	<path class="st13" d="M378.7,118.3c0,13.1-10.6,23.8-23.8,23.8c-13.1,0-23.8-10.6-23.8-23.8"/>
	<path class="st14" d="M209.6,245.2c9.2-12.7,30.6-14.7,56.4-2.1s27.2,14.1,44.5,14.1c17.3,0,35.2-13.6,35.2-13.6"/>
	<path class="st14" d="M209.6,267.8c9.2-12.7,30.6-14.7,56.4-2.1s27.2,14.1,44.5,14.1c17.3,0,35.2-13.6,35.2-13.6"/>
</g>
</svg>
