<?xml version="1.0" encoding="utf-8"?>
<!-- Generator: Adobe Illustrator 26.0.3, SVG Export Plug-In . SVG Version: 6.00 Build 0)  -->
<svg version="1.1" id="Calque_1" xmlns="http://www.w3.org/2000/svg" xmlns:xlink="http://www.w3.org/1999/xlink" x="0px" y="0px"
	 viewBox="0 0 600 360" style="enable-background:new 0 0 600 360;" xml:space="preserve">
<style type="text/css">
	.st0{fill:#FF1B16;}
	.st1{fill:#FFA001;}
	.st2{fill:#FE5E00;}
	.st3{fill:#FFFFFF;}
	.st4{font-family:'Helvetica-Bold';}
	.st5{font-size:55px;}
	.st6{fill:#08293E;}
	.st7{fill:#FEA200;stroke:#FEA200;stroke-width:2;stroke-miterlimit:10;}
	.st8{fill:none;stroke:#FEA200;stroke-width:2;stroke-miterlimit:10;}
	.st9{fill:#01C8B5;stroke:#01C8B5;stroke-width:2;stroke-miterlimit:10;}
	.st10{fill:none;stroke:#01C8B5;stroke-width:2;stroke-miterlimit:10;}
	.st11{fill:none;stroke:#02BEFE;stroke-width:2;stroke-miterlimit:10;}
	.st12{fill:#02BEFE;stroke:#02BEFE;stroke-width:2;stroke-miterlimit:10;}
	.st13{fill:none;stroke:#FE5E00;stroke-width:4;stroke-miterlimit:10;}
	.st14{fill:none;stroke:#2AA847;stroke-width:4;stroke-miterlimit:10;}
	.st15{fill:#F0E84A;stroke:#B96800;stroke-width:4;stroke-miterlimit:10;}
	.st16{fill:none;stroke:#67C1BD;stroke-width:4;stroke-miterlimit:10;}
</style>
<rect width="600" height="360"/>
<path class="st0" d="M254,148.9c0-39.7,18.6-75,47.6-97.7c-21-16.5-47.5-26.3-76.3-26.3c-68.4,0-123.9,55.5-123.9,123.9
	s55.5,123.9,123.9,123.9c28.8,0,55.3-9.8,76.3-26.3C272.7,223.9,254,188.5,254,148.9z"/>
<path class="st1" d="M378,24.9c-28.8,0-55.3,9.8-76.3,26.3c29,22.7,47.6,58,47.6,97.7s-18.6,75-47.6,97.7
	c21,16.5,47.5,26.3,76.3,26.3c68.4,0,123.9-55.5,123.9-123.9S446.4,24.9,378,24.9z"/>
<ellipse class="st2" cx="301.7" cy="148.9" rx="47.6" ry="97.7"/>
<text transform="matrix(1 0 0 1 151.7173 336.5635)" class="st3 st4 st5">mastercard</text>
</svg>
