<?xml version="1.0" encoding="utf-8"?>
<!-- Generator: Adobe Illustrator 26.0.3, SVG Export Plug-In . SVG Version: 6.00 Build 0)  -->
<svg version="1.1" id="Calque_1" xmlns="http://www.w3.org/2000/svg" xmlns:xlink="http://www.w3.org/1999/xlink" x="0px" y="0px"
	 viewBox="0 0 600 360" style="enable-background:new 0 0 600 360;" xml:space="preserve">
<style type="text/css">
	.st0{fill:#FF1B16;}
	.st1{fill:#FFA001;}
	.st2{fill:#FE5E00;}
	.st3{fill:#FFFFFF;}
	.st4{fill:#08293E;}
	.st5{fill:#FEA200;stroke:#FEA200;stroke-width:2;stroke-miterlimit:10;}
	.st6{fill:none;stroke:#FEA200;stroke-width:2;stroke-miterlimit:10;}
	.st7{fill:#01C8B5;stroke:#01C8B5;stroke-width:2;stroke-miterlimit:10;}
	.st8{fill:none;stroke:#01C8B5;stroke-width:2;stroke-miterlimit:10;}
	.st9{fill:none;stroke:#02BEFE;stroke-width:2;stroke-miterlimit:10;}
	.st10{fill:#02BEFE;stroke:#02BEFE;stroke-width:2;stroke-miterlimit:10;}
	.st11{fill:none;stroke:#FE5E00;stroke-width:4;stroke-miterlimit:10;}
	.st12{fill:none;stroke:#2AA847;stroke-width:4;stroke-miterlimit:10;}
	.st13{fill:#F0E84A;stroke:#B96800;stroke-width:4;stroke-miterlimit:10;}
	.st14{fill:none;stroke:#67C1BD;stroke-width:4;stroke-miterlimit:10;}
</style>
<rect x="0.1" class="st4" width="600.8" height="360"/>
<g>
	<polygon class="st5" points="61.2,165 46.2,195 76.2,195 	"/>
	<polygon class="st5" points="353.8,165 338.8,195 368.8,195 	"/>
	<polygon class="st6" points="487.6,165 472.6,195 502.6,195 	"/>
	<rect x="97" y="165" transform="matrix(0.7071 0.7071 -0.7071 0.7071 160.0958 -26.5054)" class="st7" width="30" height="30"/>
	<rect x="287.9" y="165" transform="matrix(0.7071 0.7071 -0.7071 0.7071 216.004 -161.4799)" class="st8" width="30" height="30"/>
	<circle class="st9" cx="162.9" cy="180" r="15"/>
	<circle class="st10" cx="252.1" cy="180" r="15"/>
	<circle class="st9" cx="443" cy="180" r="15"/>
	<g>
		<line class="st6" x1="207.5" y1="165" x2="207.5" y2="195"/>
		<line class="st6" x1="192.5" y1="180" x2="222.5" y2="180"/>
	</g>
	<g>
		<line class="st6" x1="398.4" y1="165" x2="398.4" y2="195"/>
		<line class="st6" x1="383.4" y1="180" x2="413.4" y2="180"/>
	</g>
	<g>
		<line class="st6" x1="532.2" y1="165" x2="532.2" y2="195"/>
		<line class="st6" x1="517.2" y1="180" x2="547.2" y2="180"/>
	</g>
</g>
</svg>
